<svg xmlns="http://www.w3.org/2000/svg" viewBox="0 0 256 256" width="32" height="32">
  <defs>
    <linearGradient id="gradient1" x1="0%" y1="0%" x2="100%" y2="100%">
      <stop offset="0%" stop-color="#4584b6" />
      <stop offset="100%" stop-color="#3476a9" />
    </linearGradient>
    <linearGradient id="gradient2" x1="0%" y1="0%" x2="100%" y2="100%">
      <stop offset="0%" stop-color="#ffd43b" />
      <stop offset="100%" stop-color="#ffe873" />
    </linearGradient>
  </defs>
  <rect width="256" height="256" rx="35" fill="transparent" />
  <path d="M127.5,23.3c-60.7,0-57,27.1-57,27.1l0.1,28h58.1v8.2H47.9c0,0-39.2-4.4-39.2,57.6c0,61.9,34.2,59.7,34.2,59.7h20.4
    v-28.7c0,0-1.1-34.3,33.7-34.3h58c0,0,32.6,0.5,32.6-31.5V53.1C187.6,53.1,190.4,23.3,127.5,23.3z M96.3,42.2
    c5.8,0,10.4,4.7,10.4,10.5c0,5.8-4.7,10.5-10.4,10.5c-5.8,0-10.4-4.7-10.4-10.5C85.9,46.9,90.5,42.2,96.3,42.2z" 
    fill="url(#gradient1)"/>
  <path d="M128.7,232.7c60.7,0,57-27.1,57-27.1l-0.1-28h-58.1v-8.2h80.8c0,0,39.2,4.4,39.2-57.6c0-61.9-34.2-59.7-34.2-59.7
    h-20.4v28.7c0,0,1.1,34.3-33.7,34.3h-58c0,0-32.6-0.5-32.6,31.5v53.1C68.6,202.9,65.8,232.7,128.7,232.7z M159.9,213.8
    c-5.8,0-10.4-4.7-10.4-10.5c0-5.8,4.7-10.5,10.4-10.5c5.8,0,10.4,4.7,10.4,10.5C170.3,209.1,165.6,213.8,159.9,213.8z" 
    fill="url(#gradient2)"/>
</svg> 